<svg width="40" height="40" viewBox="0 0 40 40" fill="none" xmlns="http://www.w3.org/2000/svg">
<g clip-path="url(#clip0_3_71)">
<path d="M32 0H8C3.58172 0 0 3.58172 0 8V32C0 36.4183 3.58172 40 8 40H32C36.4183 40 40 36.4183 40 32V8C40 3.58172 36.4183 0 32 0Z" fill="white"/>
<path d="M32 0H8C3.58172 0 0 3.58172 0 8V32C0 36.4183 3.58172 40 8 40H32C36.4183 40 40 36.4183 40 32V8C40 3.58172 36.4183 0 32 0Z" fill="#84080E"/>
<path d="M24 24H16C15.4477 24 15 24.4477 15 25V33C15 33.5523 15.4477 34 16 34H24C24.5523 34 25 33.5523 25 33V25C25 24.4477 24.5523 24 24 24Z" fill="white"/>
<path d="M18.1877 5.60176L11.7986 10.4163C11.3576 10.7487 11.2694 11.3757 11.6018 11.8167L16.4163 18.2058C16.7487 18.6469 17.3757 18.735 17.8168 18.4026L24.2059 13.5881C24.6469 13.2557 24.7351 12.6287 24.4027 12.1877L19.5882 5.79858C19.2558 5.35751 18.6288 5.26939 18.1877 5.60176Z" fill="white"/>
</g>
<defs>
<clipPath id="clip0_3_71">
<rect width="40" height="40" fill="white"/>
</clipPath>
</defs>
</svg>
