<svg xmlns="http://www.w3.org/2000/svg" viewBox="0 0 200 130">
  <!-- Skinny Hollow Donut Gauge -->
  <path d="M 10.00 110.00 A 90 90 0 0 1 27.19 57.10 L 41.75 67.68 A 72 72 0 0 0 28.00 110.00 Z" fill="#a10008"/>
  <path d="M 27.19 57.10 A 90 90 0 0 1 72.19 24.40 L 77.75 41.52 A 72 72 0 0 0 41.75 67.68 Z" fill="#fba32a"/>
  <path d="M 72.19 24.40 A 90 90 0 0 1 127.81 24.40 L 122.25 41.52 A 72 72 0 0 0 77.75 41.52 Z" fill="#fffc40"/>
  <path d="M 127.81 24.40 A 90 90 0 0 1 172.81 57.10 L 158.25 67.68 A 72 72 0 0 0 122.25 41.52 Z" fill="#086312"/>
  <path d="M 172.81 57.10 A 90 90 0 0 1 190.00 110.00 L 172.00 110.00 A 72 72 0 0 0 158.25 67.68 Z" fill="#0026f6"/>
  <!-- Friendly Arrow Level 1 -->
  <path d="M 22.01 84.66 L 33.78 93.74 L 34.79 90.65 L 99.46 111.66 L 100.54 108.34 L 35.87 87.32 L 36.87 84.23 Z" fill="#0A2D3C"/>
  <circle cx="100" cy="110" r="5" fill="#0A2D3C"/>
</svg>