<svg width="1280" height="640" viewBox="0 0 1280 640" fill="none" xmlns="http://www.w3.org/2000/svg">
<g clip-path="url(#clip0_25_161)">
<path d="M371 319.5C371 402.619 303.619 470 220.5 470C137.381 470 70 402.619 70 319.5C70 236.381 137.381 169 220.5 169C303.619 169 371 236.381 371 319.5ZM154.176 319.5C154.176 356.13 183.87 385.824 220.5 385.824C257.13 385.824 286.824 356.13 286.824 319.5C286.824 282.87 257.13 253.176 220.5 253.176C183.87 253.176 154.176 282.87 154.176 319.5Z" fill="#F52B5C"/>
<path d="M143.055 397.648C137.543 397.876 133.26 402.53 133.489 408.042C133.718 413.554 138.371 417.837 143.883 417.608L143.469 407.628L143.055 397.648ZM325.051 213.617L241.155 292.771L351.652 325.85L325.051 213.617ZM143.469 407.628L143.883 417.608C192.394 415.596 228.075 400.949 254.52 379.458C280.834 358.072 297.324 330.465 308.495 303.566L299.27 299.735L290.045 295.904C279.649 320.935 264.822 345.342 241.92 363.954C219.148 382.461 187.712 395.795 143.055 397.648L143.469 407.628Z" fill="#081841"/>
<path d="M558.088 216.594C552.284 216.594 546.827 215.45 541.718 213.161C536.608 210.831 532.112 207.622 528.229 203.534C524.387 199.447 521.362 194.726 519.155 189.371C516.988 183.976 515.905 178.212 515.905 172.081C515.905 165.909 516.988 160.145 519.155 154.791C521.362 149.395 524.387 144.674 528.229 140.627C532.112 136.54 536.608 133.351 541.718 131.062C546.827 128.733 552.284 127.568 558.088 127.568C565.037 127.568 571.434 129.182 577.279 132.411C583.125 135.6 587.968 139.871 591.811 145.226L578.444 152.399C576.033 149.415 573.028 147.024 569.431 145.226C565.875 143.427 562.094 142.528 558.088 142.528C554.328 142.528 550.792 143.305 547.481 144.858C544.17 146.37 541.268 148.496 538.775 151.234C536.281 153.932 534.34 157.08 532.95 160.677C531.56 164.233 530.865 168.034 530.865 172.081C530.865 176.168 531.56 179.99 532.95 183.546C534.381 187.103 536.343 190.25 538.836 192.989C541.33 195.686 544.211 197.812 547.481 199.365C550.792 200.878 554.328 201.634 558.088 201.634C562.176 201.634 565.977 200.734 569.493 198.936C573.049 197.097 576.033 194.685 578.444 191.701L591.811 198.936C587.968 204.25 583.125 208.521 577.279 211.75C571.434 214.98 565.037 216.594 558.088 216.594ZM646.378 153.687H661.339V215H646.378L645.704 207.397C644.028 210.136 641.8 212.364 639.021 214.08C636.282 215.756 633.032 216.594 629.272 216.594C624.735 216.594 620.484 215.736 616.519 214.019C612.554 212.302 609.059 209.931 606.034 206.907C603.05 203.882 600.7 200.387 598.983 196.422C597.307 192.457 596.469 188.206 596.469 183.669C596.469 179.295 597.267 175.187 598.861 171.345C600.496 167.503 602.764 164.131 605.666 161.228C608.569 158.326 611.92 156.058 615.722 154.423C619.523 152.788 623.611 151.97 627.984 151.97C632.031 151.97 635.649 152.869 638.837 154.668C642.066 156.466 644.805 158.755 647.053 161.535L646.378 153.687ZM628.904 202.186C632.092 202.186 634.913 201.388 637.365 199.794C639.818 198.2 641.739 196.054 643.129 193.356C644.518 190.618 645.213 187.613 645.213 184.343C645.213 181.033 644.518 178.028 643.129 175.33C641.739 172.592 639.797 170.425 637.304 168.831C634.851 167.237 632.051 166.44 628.904 166.44C625.757 166.44 622.875 167.258 620.259 168.893C617.684 170.487 615.62 172.633 614.066 175.33C612.554 178.028 611.798 181.033 611.798 184.343C611.798 187.654 612.574 190.659 614.128 193.356C615.681 196.054 617.745 198.2 620.32 199.794C622.936 201.388 625.798 202.186 628.904 202.186ZM673.916 215V123.03H688.876V215H673.916ZM703.614 153.687H718.574V215H703.614V153.687ZM711.217 145.778C709.01 145.778 707.15 145.062 705.637 143.632C704.125 142.16 703.369 140.321 703.369 138.113C703.369 135.947 704.125 134.128 705.637 132.657C707.15 131.185 708.989 130.449 711.156 130.449C713.322 130.449 715.141 131.185 716.612 132.657C718.125 134.128 718.881 135.947 718.881 138.113C718.881 140.321 718.145 142.16 716.674 143.632C715.202 145.062 713.383 145.778 711.217 145.778ZM750.664 140.811V153.687H767.403V168.647H750.664V215H735.704V168.647H729.021V153.687H735.704V140.811C735.704 137.296 736.562 134.087 738.279 131.185C740.037 128.242 742.387 125.912 745.33 124.195C748.273 122.438 751.523 121.559 755.079 121.559C757.654 121.559 760.209 122.09 762.743 123.153C765.277 124.216 767.525 125.851 769.487 128.058L758.696 138.604C758.328 137.909 757.797 137.398 757.102 137.071C756.448 136.703 755.774 136.519 755.079 136.519C753.893 136.519 752.851 136.948 751.952 137.807C751.093 138.624 750.664 139.626 750.664 140.811ZM803.281 216.594C797.641 216.594 792.49 215.143 787.83 212.241C783.212 209.339 779.512 205.456 776.733 200.591C773.994 195.686 772.625 190.27 772.625 184.343C772.625 179.847 773.422 175.657 775.016 171.774C776.61 167.85 778.797 164.417 781.577 161.474C784.397 158.49 787.667 156.16 791.387 154.484C795.106 152.808 799.071 151.97 803.281 151.97C808.922 151.97 814.052 153.421 818.671 156.323C823.331 159.226 827.03 163.129 829.769 168.034C832.548 172.939 833.938 178.376 833.938 184.343C833.938 188.799 833.141 192.968 831.547 196.851C829.953 200.734 827.745 204.168 824.925 207.152C822.145 210.095 818.896 212.404 815.176 214.08C811.497 215.756 807.532 216.594 803.281 216.594ZM803.281 201.634C806.265 201.634 808.943 200.837 811.313 199.243C813.684 197.648 815.544 195.543 816.893 192.927C818.283 190.311 818.977 187.45 818.977 184.343C818.977 181.155 818.262 178.253 816.832 175.637C815.442 172.98 813.541 170.875 811.129 169.322C808.759 167.728 806.143 166.931 803.281 166.931C800.338 166.931 797.681 167.728 795.311 169.322C792.94 170.916 791.06 173.041 789.67 175.698C788.28 178.355 787.585 181.237 787.585 184.343C787.585 187.573 788.301 190.495 789.731 193.111C791.162 195.727 793.062 197.812 795.433 199.365C797.845 200.878 800.461 201.634 803.281 201.634ZM843.546 215L843.484 153.687H858.445L858.506 159.144C860.591 156.937 863.084 155.199 865.986 153.932C868.889 152.624 872.016 151.97 875.367 151.97C877.615 151.97 879.864 152.297 882.112 152.951L876.226 168.034C874.672 167.421 873.119 167.114 871.566 167.114C869.154 167.114 866.947 167.707 864.944 168.893C862.982 170.037 861.408 171.611 860.223 173.614C859.078 175.576 858.506 177.763 858.506 180.174V215H843.546ZM945.393 176.25V215H930.432V180.174C930.432 177.763 929.839 175.576 928.654 173.614C927.469 171.611 925.875 170.037 923.872 168.893C921.91 167.707 919.723 167.114 917.311 167.114C914.9 167.114 912.692 167.707 910.689 168.893C908.727 170.037 907.154 171.611 905.968 173.614C904.824 175.576 904.251 177.763 904.251 180.174V215H889.291L889.23 153.687H904.19L904.251 159.144C906.336 156.937 908.83 155.199 911.732 153.932C914.634 152.624 917.761 151.97 921.113 151.97C925.568 151.97 929.635 153.074 933.314 155.281C936.993 157.447 939.915 160.37 942.082 164.049C944.289 167.687 945.393 171.754 945.393 176.25ZM957.608 153.687H972.569V215H957.608V153.687ZM965.211 145.778C963.004 145.778 961.144 145.062 959.632 143.632C958.119 142.16 957.363 140.321 957.363 138.113C957.363 135.947 958.119 134.128 959.632 132.657C961.144 131.185 962.983 130.449 965.15 130.449C967.316 130.449 969.135 131.185 970.607 132.657C972.119 134.128 972.875 135.947 972.875 138.113C972.875 140.321 972.139 142.16 970.668 143.632C969.196 145.062 967.377 145.778 965.211 145.778ZM1032.1 153.687H1047.06V215H1032.1L1031.43 207.397C1029.75 210.136 1027.52 212.364 1024.74 214.08C1022 215.756 1018.75 216.594 1014.99 216.594C1010.46 216.594 1006.21 215.736 1002.24 214.019C998.275 212.302 994.781 209.931 991.756 206.907C988.772 203.882 986.422 200.387 984.705 196.422C983.029 192.457 982.191 188.206 982.191 183.669C982.191 179.295 982.988 175.187 984.582 171.345C986.217 167.503 988.486 164.131 991.388 161.228C994.29 158.326 997.642 156.058 1001.44 154.423C1005.24 152.788 1009.33 151.97 1013.71 151.97C1017.75 151.97 1021.37 152.869 1024.56 154.668C1027.79 156.466 1030.53 158.755 1032.77 161.535L1032.1 153.687ZM1014.63 202.186C1017.81 202.186 1020.63 201.388 1023.09 199.794C1025.54 198.2 1027.46 196.054 1028.85 193.356C1030.24 190.618 1030.93 187.613 1030.93 184.343C1030.93 181.033 1030.24 178.028 1028.85 175.33C1027.46 172.592 1025.52 170.425 1023.03 168.831C1020.57 167.237 1017.77 166.44 1014.63 166.44C1011.48 166.44 1008.6 167.258 1005.98 168.893C1003.41 170.487 1001.34 172.633 999.788 175.33C998.275 178.028 997.519 181.033 997.519 184.343C997.519 187.654 998.296 190.659 999.849 193.356C1001.4 196.054 1003.47 198.2 1006.04 199.794C1008.66 201.388 1011.52 202.186 1014.63 202.186Z" fill="#0A2D3C"/>
<path d="M436.511 276.162H453.74L484.948 362H469.068L463.55 346.794H426.762L421.244 362H405.364L436.511 276.162ZM432.219 331.834H458.032L445.095 296.456L432.219 331.834ZM529.058 343.545L542.547 350.841C539.727 354.683 536.191 357.769 531.94 360.099C527.689 362.429 523.05 363.594 518.022 363.594C512.381 363.594 507.231 362.143 502.571 359.241C497.952 356.339 494.253 352.456 491.473 347.591C488.735 342.686 487.366 337.27 487.366 331.343C487.366 326.847 488.163 322.657 489.757 318.774C491.351 314.85 493.538 311.417 496.317 308.474C499.138 305.49 502.408 303.16 506.127 301.484C509.847 299.808 513.812 298.97 518.022 298.97C523.05 298.97 527.689 300.135 531.94 302.465C536.191 304.795 539.727 307.922 542.547 311.846L529.058 319.081C527.628 317.446 525.931 316.179 523.969 315.279C522.048 314.38 520.066 313.931 518.022 313.931C515.079 313.931 512.422 314.748 510.051 316.383C507.681 317.977 505.8 320.103 504.411 322.76C503.021 325.376 502.326 328.237 502.326 331.343C502.326 334.409 503.021 337.27 504.411 339.927C505.8 342.543 507.681 344.648 510.051 346.243C512.422 347.837 515.079 348.634 518.022 348.634C520.148 348.634 522.171 348.184 524.092 347.285C526.013 346.345 527.669 345.098 529.058 343.545ZM589.653 343.545L603.142 350.841C600.321 354.683 596.786 357.769 592.535 360.099C588.284 362.429 583.644 363.594 578.617 363.594C572.976 363.594 567.826 362.143 563.166 359.241C558.547 356.339 554.848 352.456 552.068 347.591C549.329 342.686 547.96 337.27 547.96 331.343C547.96 326.847 548.757 322.657 550.351 318.774C551.945 314.85 554.132 311.417 556.912 308.474C559.732 305.49 563.002 303.16 566.722 301.484C570.442 299.808 574.406 298.97 578.617 298.97C583.644 298.97 588.284 300.135 592.535 302.465C596.786 304.795 600.321 307.922 603.142 311.846L589.653 319.081C588.222 317.446 586.526 316.179 584.564 315.279C582.643 314.38 580.66 313.931 578.617 313.931C575.674 313.931 573.017 314.748 570.646 316.383C568.275 317.977 566.395 320.103 565.005 322.76C563.615 325.376 562.92 328.237 562.92 331.343C562.92 334.409 563.615 337.27 565.005 339.927C566.395 342.543 568.275 344.648 570.646 346.243C573.017 347.837 575.674 348.634 578.617 348.634C580.742 348.634 582.765 348.184 584.687 347.285C586.608 346.345 588.263 345.098 589.653 343.545ZM639.211 363.594C633.57 363.594 628.42 362.143 623.76 359.241C619.141 356.339 615.442 352.456 612.663 347.591C609.924 342.686 608.555 337.27 608.555 331.343C608.555 326.847 609.352 322.657 610.946 318.774C612.54 314.85 614.727 311.417 617.506 308.474C620.327 305.49 623.597 303.16 627.316 301.484C631.036 299.808 635.001 298.97 639.211 298.97C644.852 298.97 649.982 300.421 654.601 303.323C659.261 306.226 662.96 310.129 665.698 315.034C668.478 319.939 669.868 325.376 669.868 331.343C669.868 335.799 669.071 339.968 667.476 343.851C665.882 347.734 663.675 351.168 660.855 354.152C658.075 357.095 654.826 359.404 651.106 361.08C647.427 362.756 643.462 363.594 639.211 363.594ZM639.211 348.634C642.195 348.634 644.872 347.837 647.243 346.243C649.614 344.648 651.474 342.543 652.823 339.927C654.212 337.311 654.907 334.45 654.907 331.343C654.907 328.155 654.192 325.253 652.761 322.637C651.372 319.98 649.471 317.875 647.059 316.322C644.688 314.728 642.072 313.931 639.211 313.931C636.268 313.931 633.611 314.728 631.24 316.322C628.87 317.916 626.989 320.041 625.6 322.698C624.21 325.355 623.515 328.237 623.515 331.343C623.515 334.573 624.23 337.495 625.661 340.111C627.092 342.727 628.992 344.812 631.363 346.365C633.775 347.878 636.391 348.634 639.211 348.634ZM675.645 339.314V300.687H690.605V335.39C690.605 337.802 691.198 340.009 692.383 342.012C693.568 343.974 695.142 345.548 697.104 346.733C699.107 347.878 701.294 348.45 703.665 348.45C706.117 348.45 708.324 347.878 710.286 346.733C712.248 345.548 713.822 343.974 715.008 342.012C716.193 340.009 716.786 337.802 716.786 335.39V300.687H731.746L731.807 362H716.847L716.786 356.421C714.66 358.628 712.146 360.385 709.244 361.693C706.342 362.961 703.235 363.594 699.925 363.594C695.469 363.594 691.402 362.511 687.723 360.345C684.044 358.137 681.101 355.215 678.894 351.577C676.728 347.898 675.645 343.81 675.645 339.314ZM800.243 323.25V362H785.283V327.174C785.283 324.763 784.69 322.576 783.505 320.614C782.319 318.611 780.725 317.037 778.722 315.893C776.76 314.707 774.574 314.114 772.162 314.114C769.75 314.114 767.543 314.707 765.54 315.893C763.578 317.037 762.004 318.611 760.819 320.614C759.674 322.576 759.102 324.763 759.102 327.174V362H744.142L744.08 300.687H759.041L759.102 306.144C761.187 303.937 763.68 302.199 766.582 300.932C769.485 299.624 772.611 298.97 775.963 298.97C780.419 298.97 784.486 300.074 788.165 302.281C791.843 304.447 794.766 307.37 796.932 311.049C799.14 314.687 800.243 318.754 800.243 323.25ZM845.323 315.647H833.428V362H818.468V315.647H809.393V300.687H818.468V281.435H833.428V300.687H845.323V315.647ZM901.201 300.687H916.161V362H901.201L900.527 354.397C898.851 357.136 896.623 359.364 893.843 361.08C891.105 362.756 887.855 363.594 884.095 363.594C879.557 363.594 875.306 362.736 871.342 361.019C867.377 359.302 863.882 356.931 860.857 353.907C857.873 350.882 855.523 347.387 853.806 343.422C852.13 339.457 851.292 335.206 851.292 330.669C851.292 326.295 852.089 322.187 853.683 318.345C855.318 314.503 857.587 311.131 860.489 308.228C863.391 305.326 866.743 303.058 870.544 301.423C874.346 299.788 878.433 298.97 882.807 298.97C886.854 298.97 890.471 299.869 893.659 301.668C896.889 303.466 899.627 305.755 901.875 308.535L901.201 300.687ZM883.727 349.186C886.915 349.186 889.735 348.388 892.188 346.794C894.64 345.2 896.562 343.054 897.951 340.356C899.341 337.618 900.036 334.613 900.036 331.343C900.036 328.033 899.341 325.028 897.951 322.33C896.562 319.592 894.62 317.425 892.127 315.831C889.674 314.237 886.874 313.44 883.727 313.44C880.579 313.44 877.698 314.258 875.082 315.893C872.506 317.487 870.442 319.633 868.889 322.33C867.377 325.028 866.62 328.033 866.62 331.343C866.62 334.654 867.397 337.659 868.95 340.356C870.504 343.054 872.568 345.2 875.143 346.794C877.759 348.388 880.62 349.186 883.727 349.186ZM961.357 298.97C967.325 298.97 972.761 300.421 977.666 303.323C982.571 306.226 986.475 310.129 989.377 315.034C992.279 319.898 993.73 325.294 993.73 331.221C993.73 335.676 992.892 339.866 991.216 343.79C989.54 347.714 987.21 351.168 984.227 354.152C981.283 357.095 977.85 359.404 973.926 361.08C970.043 362.756 965.853 363.594 961.357 363.594C957.514 363.594 954.101 362.736 951.117 361.019C948.174 359.261 945.701 356.993 943.699 354.213V362H928.738V270.03H943.699V308.351C945.701 305.572 948.174 303.323 951.117 301.607C954.101 299.849 957.514 298.97 961.357 298.97ZM961.173 349.124C964.361 349.124 967.243 348.327 969.818 346.733C972.434 345.098 974.519 342.932 976.072 340.234C977.625 337.536 978.402 334.532 978.402 331.221C978.402 327.951 977.625 324.967 976.072 322.269C974.519 319.53 972.434 317.364 969.818 315.77C967.202 314.176 964.32 313.379 961.173 313.379C958.066 313.379 955.287 314.196 952.834 315.831C950.382 317.425 948.461 319.592 947.071 322.33C945.681 325.028 944.986 327.992 944.986 331.221C944.986 334.532 945.681 337.557 947.071 340.295C948.461 342.993 950.382 345.139 952.834 346.733C955.287 348.327 958.066 349.124 961.173 349.124ZM1002.03 300.687H1016.99V362H1002.03V300.687ZM1009.63 292.778C1007.42 292.778 1005.56 292.062 1004.05 290.632C1002.54 289.16 1001.78 287.321 1001.78 285.113C1001.78 282.947 1002.54 281.128 1004.05 279.657C1005.56 278.185 1007.4 277.449 1009.57 277.449C1011.73 277.449 1013.55 278.185 1015.02 279.657C1016.54 281.128 1017.29 282.947 1017.29 285.113C1017.29 287.321 1016.56 289.16 1015.09 290.632C1013.61 292.062 1011.8 292.778 1009.63 292.778ZM1031.96 362V270.03H1046.92V362H1031.96ZM1061.66 300.687H1076.62V362H1061.66V300.687ZM1069.27 292.778C1067.06 292.778 1065.2 292.062 1063.69 290.632C1062.17 289.16 1061.42 287.321 1061.42 285.113C1061.42 282.947 1062.17 281.128 1063.69 279.657C1065.2 278.185 1067.04 277.449 1069.2 277.449C1071.37 277.449 1073.19 278.185 1074.66 279.657C1076.17 281.128 1076.93 282.947 1076.93 285.113C1076.93 287.321 1076.19 289.16 1074.72 290.632C1073.25 292.062 1071.43 292.778 1069.27 292.778ZM1124.23 315.647H1112.33V362H1097.37V315.647H1088.3V300.687H1097.37V281.435H1112.33V300.687H1124.23V315.647ZM1174.98 300.687H1190.86L1157.32 392.657H1141.44L1152.54 362L1130.46 300.687H1146.83L1160.02 341.521L1174.98 300.687Z" fill="#0A2D3C"/>
<path d="M660.817 509V423.162H688.285C692.863 423.162 696.991 424.286 700.67 426.534C704.349 428.741 707.271 431.746 709.438 435.547C711.645 439.307 712.749 443.538 712.749 448.239C712.749 452.98 711.625 457.252 709.377 461.053C707.169 464.855 704.206 467.859 700.486 470.066C696.807 472.273 692.74 473.377 688.285 473.377H669.4V509H660.817ZM669.4 464.793H687.61C690.635 464.793 693.394 464.058 695.888 462.586C698.422 461.074 700.425 459.05 701.896 456.516C703.409 453.941 704.165 451.039 704.165 447.81C704.165 444.58 703.409 441.699 701.896 439.164C700.425 436.589 698.422 434.566 695.888 433.094C693.394 431.582 690.635 430.826 687.61 430.826H669.4V464.793ZM770.373 447.687H778.957V509H770.373L770.067 497.596C768.064 501.479 765.264 504.626 761.667 507.038C758.07 509.409 753.778 510.594 748.791 510.594C744.295 510.594 740.085 509.756 736.161 508.08C732.237 506.364 728.783 504.013 725.799 501.029C722.815 498.045 720.485 494.591 718.809 490.667C717.133 486.743 716.295 482.533 716.295 478.037C716.295 473.622 717.113 469.474 718.748 465.59C720.424 461.707 722.713 458.294 725.615 455.351C728.558 452.408 731.951 450.119 735.793 448.484C739.676 446.808 743.825 445.97 748.239 445.97C753.349 445.97 757.804 447.196 761.606 449.649C765.407 452.061 768.432 455.228 770.68 459.152L770.373 447.687ZM748.607 502.256C752.981 502.256 756.742 501.193 759.889 499.067C763.036 496.901 765.448 493.999 767.124 490.361C768.841 486.723 769.699 482.717 769.699 478.343C769.699 473.847 768.841 469.801 767.124 466.203C765.407 462.566 762.975 459.684 759.828 457.558C756.68 455.433 752.94 454.37 748.607 454.37C744.275 454.37 740.31 455.453 736.713 457.62C733.156 459.745 730.316 462.627 728.19 466.265C726.105 469.903 725.063 473.929 725.063 478.343C725.063 482.799 726.146 486.846 728.313 490.483C730.479 494.08 733.34 496.942 736.897 499.067C740.494 501.193 744.397 502.256 748.607 502.256ZM844.692 471.047V509H836.108V472.764C836.108 469.412 835.29 466.367 833.655 463.628C832.02 460.89 829.833 458.703 827.095 457.068C824.356 455.433 821.311 454.615 817.959 454.615C814.648 454.615 811.603 455.433 808.823 457.068C806.085 458.703 803.898 460.89 802.263 463.628C800.628 466.367 799.81 469.412 799.81 472.764V509H791.227V447.687H799.81V456.148C801.977 453.042 804.797 450.569 808.272 448.729C811.746 446.89 815.527 445.97 819.615 445.97C824.233 445.97 828.444 447.094 832.245 449.342C836.046 451.591 839.071 454.615 841.319 458.417C843.568 462.218 844.692 466.428 844.692 471.047ZM882.751 510.594C877.11 510.594 871.96 509.143 867.3 506.241C862.681 503.339 858.982 499.456 856.202 494.591C853.464 489.686 852.094 484.27 852.094 478.343C852.094 473.847 852.891 469.657 854.485 465.774C856.08 461.85 858.266 458.417 861.046 455.474C863.866 452.49 867.136 450.16 870.856 448.484C874.576 446.808 878.541 445.97 882.751 445.97C887.288 445.97 891.457 446.869 895.259 448.668C899.101 450.466 902.391 452.98 905.13 456.209C907.91 459.439 909.994 463.22 911.384 467.552C912.815 471.885 913.407 476.565 913.162 481.593H861.169C861.659 485.476 862.885 488.951 864.847 492.016C866.85 495.082 869.384 497.514 872.45 499.313C875.557 501.07 878.99 501.969 882.751 502.01C886.838 502.01 890.517 500.948 893.787 498.822C897.098 496.697 899.755 493.774 901.758 490.054L910.464 492.078C908.012 497.514 904.313 501.969 899.367 505.444C894.421 508.877 888.882 510.594 882.751 510.594ZM860.923 474.665H904.517C904.231 470.863 903.066 467.389 901.022 464.241C899.019 461.053 896.424 458.519 893.235 456.639C890.047 454.717 886.552 453.757 882.751 453.757C878.949 453.757 875.475 454.697 872.328 456.577C869.18 458.417 866.605 460.931 864.602 464.119C862.599 467.266 861.373 470.782 860.923 474.665ZM923.193 509V417.03H931.777V509H923.193Z" fill="#0A2D3C"/>
</g>
<defs>
<clipPath id="clip0_25_161">
<rect width="1280" height="640" fill="white"/>
</clipPath>
</defs>
</svg>
